<svg xmlns="http://www.w3.org/2000/svg" version="1.1" baseProfile="full" width="1000" height="200" viewBox="0,0,1000,200">
<rect x="0" y="0" width="1000" height="200" fill="#052133" />
<path d="M503.23148875306777,78.76193945964035L510.5221212285669,55.06155722303796M398.6524850608852,136.93845430994313L503.23148875306777,78.76193945964035M944.289971232414,97.89320544624647L818.601949447854,8.179499134760837M553.9373082782835,179.45401849993314L503.23148875306777,78.76193945964035M210.42300549327388,97.01403171383505L242.52509711849112,60.8288669611154M4.830671073658754,108.38625102269832L75.66767763695536,143.02389794428777M900.552509597121,198.37128913459688L834.8066674479085,172.43978671441204M373.8304264953449,50.29497697860656L398.6524850608852,136.93845430994313M590.0705299333662,18.936426134880335L550.4658983766282,37.31778204804037M184.82536330704446,188.3088855631319L260.8303472028479,132.48926587045696M59.9169351417006,173.34075763181116L75.66767763695536,143.02389794428777M908.7463814897869,148.79458363651023L900.552509597121,198.37128913459688M491.11560294565606,36.68933729858046L510.5221212285669,55.06155722303796M99.7268512956957,195.523062321653L59.9169351417006,173.34075763181116M358.10004651746993,14.263114820885514L373.8304264953449,50.29497697860656M621.8047721056745,142.0280691108169L553.9373082782835,179.45401849993314" stroke="#3a7b87" fill="none">
<animate attributeName="stroke-dasharray" from="0 200" to="200 0" dur="3s"></animate>
</path>

<g fill="white">
<circle cx="818.601949447854" cy="8.179499134760837" r="1.4198509355313949"/><circle cx="242.52509711849112" cy="60.8288669611154" r="0.42387013505569016"/><circle cx="260.8303472028479" cy="132.48926587045696" r="1.1967084255401765"/><circle cx="550.4658983766282" cy="37.31778204804037" r="1.3271815981403594"/><circle cx="510.5221212285669" cy="55.06155722303796" r="1.6692702344677786"/><circle cx="75.66767763695536" cy="143.02389794428777" r="1.88954104550767"/><circle cx="503.23148875306777" cy="78.76193945964035" r="0.1414829955247745"/><circle cx="398.6524850608852" cy="136.93845430994313" r="0.5151056485968848"/><circle cx="944.289971232414" cy="97.89320544624647" r="0.18819319315790306"/><circle cx="553.9373082782835" cy="179.45401849993314" r="1.5438631610667728"/><circle cx="210.42300549327388" cy="97.01403171383505" r="1.8377276298665142"/><circle cx="4.830671073658754" cy="108.38625102269832" r="1.5537403279316022"/><circle cx="834.8066674479085" cy="172.43978671441204" r="0.37981810527070525"/><circle cx="900.552509597121" cy="198.37128913459688" r="0.87836758131618"/><circle cx="373.8304264953449" cy="50.29497697860656" r="0.7463499284299817"/><circle cx="413.653394259188" cy="199.8513055306922" r="1.1471641325351625"/><circle cx="711.3413871944492" cy="92.33959788830165" r="0.2762070639769081"/><circle cx="590.0705299333662" cy="18.936426134880335" r="1.2305057320413928"/><circle cx="87.6370809772562" cy="126.70979811995574" r="1.4823390996923909"/><circle cx="184.82536330704446" cy="188.3088855631319" r="1.0223522788350796"/><circle cx="59.9169351417006" cy="173.34075763181116" r="0.22926335201000825"/><circle cx="72.78566121969531" cy="23.02252171058874" r="1.1808351321265027"/><circle cx="908.0980332147249" cy="24.403417116428283" r="1.5113252367015404"/><circle cx="908.7463814897869" cy="148.79458363651023" r="0.473088401450914"/><circle cx="491.11560294565606" cy="36.68933729858046" r="0.4930848045521148"/><circle cx="611.1609393385069" cy="6.254071917236814" r="1.3911182115624539"/><circle cx="99.7268512956957" cy="195.523062321653" r="0.1999439540007737"/><circle cx="358.10004651746993" cy="14.263114820885514" r="1.6157665297763044"/><circle cx="621.8047721056745" cy="142.0280691108169" r="1.0543762604766358"/><circle cx="146.72520975586622" cy="183.59566657072514" r="0.506168480897264"/></g>

</svg>